<mxfile host="app.diagrams.net" modified="2022-08-28T22:49:11.579Z" agent="5.0 (X11)" etag="1IkKaAFC9SPS9fzVVaB3" version="20.0.1" type="github">
  <diagram id="PPtIX3FaKS5rR-Z0KCOh" name="Page-1">
    <mxGraphModel dx="1662" dy="779" grid="1" gridSize="10" guides="1" tooltips="1" connect="1" arrows="1" fold="1" page="1" pageScale="1" pageWidth="850" pageHeight="1100" math="0" shadow="0">
      <root>
        <mxCell id="0" />
        <mxCell id="1" parent="0" />
        <mxCell id="TsrN7zi8VQFSFtTZLzm1-1" value="Text" style="text;html=1;strokeColor=none;fillColor=none;align=center;verticalAlign=middle;whiteSpace=wrap;rounded=0;" vertex="1" parent="1">
          <mxGeometry x="120" y="200" width="330" height="220" as="geometry" />
        </mxCell>
        <mxCell id="TsrN7zi8VQFSFtTZLzm1-2" value="" style="rounded=0;whiteSpace=wrap;html=1;" vertex="1" parent="1">
          <mxGeometry x="360" y="310" width="120" height="130" as="geometry" />
        </mxCell>
      </root>
    </mxGraphModel>
  </diagram>
</mxfile>
